<?xml version="1.0" encoding="utf-8"?>
<!-- Generator: Adobe Illustrator 26.0.3, SVG Export Plug-In . SVG Version: 6.00 Build 0)  -->
<svg version="1.0" id="katman_1" xmlns="http://www.w3.org/2000/svg" xmlns:xlink="http://www.w3.org/1999/xlink" x="0px" y="0px"
	 viewBox="0 0 600 450" style="enable-background:new 0 0 600 450;" xml:space="preserve">
<style type="text/css">
	.st0{fill:#5C4B9A;}
</style>
<path class="st0" d="M421.7,128.4l-98.4-56.9c-7-4.1-15-6.2-23.2-6.2S284,67.5,277,71.6l-98.4,56.9c-7,4.1-12.9,9.9-17,17
	c-4.1,7-6.2,15-6.2,23.2v113.6c0,8.1,2.1,16.1,6.2,23.2c4.1,7,9.9,12.9,17,17l98.4,56.9c7,4.1,15,6.2,23.2,6.2s16.1-2.1,23.2-6.2
	l98.4-56.9c7-4.1,12.9-9.9,17-17c4.1-7,6.2-15,6.2-23.2V168.6c0-8.1-2.1-16.1-6.2-23.2C434.6,138.4,428.8,132.5,421.7,128.4
	L421.7,128.4z M421.7,282.2c0,4.1-1.1,8.1-3.1,11.6c-2,3.5-5,6.4-8.5,8.5L311.7,359c-3.5,2.1-7.5,3.1-11.6,3.1s-8.1-1.1-11.6-3.1
	l-98.4-56.8c-3.5-2-6.4-5-8.5-8.5c-2-3.5-3.1-7.5-3.1-11.6V168.6c0-4.1,1.1-8.1,3.1-11.6c2-3.5,5-6.5,8.5-8.5l98.4-56.8
	c3.5-2,7.5-3.1,11.6-3.1s8.1,1.1,11.6,3.1l98.4,56.8c3.5,2.1,6.4,5,8.5,8.5c2,3.5,3.1,7.5,3.1,11.6V282.2z"/>
<path class="st0" d="M389.9,213.1l-37.6-21.7c-2.6-1.5-5.6-2.3-8.7-2.3c-3,0-6,0.8-8.7,2.3l-78.2,45.2l-31.8-18.4v-36.8l31.8-18.4
	l31.8,18.4v19.8l23.2-13.5V178c0-3.1-0.8-6-2.3-8.7c-1.5-2.6-3.7-4.8-6.4-6.4l-37.6-21.6c-2.6-1.5-5.6-2.3-8.7-2.3s-6,0.8-8.7,2.3
	l-37.6,21.7c-2.6,1.5-4.8,3.7-6.3,6.4c-1.5,2.6-2.3,5.6-2.4,8.7v43.4c0,3.1,0.8,6,2.3,8.7c1.5,2.6,3.7,4.8,6.3,6.4l37.6,21.7
	c2.7,1.5,5.6,2.3,8.7,2.3s6-0.8,8.7-2.3l78.2-45.3l31.8,18.4v36.7l-31.8,18.4l-31.8-18.4v-20l-23.2,13.4v10c0,3,0.8,6,2.3,8.6
	c1.5,2.6,3.7,4.8,6.3,6.3l37.6,21.8c2.6,1.5,5.6,2.3,8.7,2.3c3.1,0,6.1-0.8,8.7-2.3l37.6-21.7c2.6-1.5,4.8-3.7,6.4-6.4
	c1.5-2.6,2.3-5.6,2.3-8.7v-43.4c0-3.1-0.8-6.1-2.3-8.7C394.7,216.9,392.5,214.7,389.9,213.1L389.9,213.1z"/>
</svg>
