<svg height="81" viewBox="0 0 92 81" width="92" xmlns="http://www.w3.org/2000/svg"><path d="m90.3535834 30.1582169c-10.4614809-15.107542-10.4614809-15.107542-13.4963845-19.8999413-1.4736805-2.32775186-3.7275696-3.96153633-6.3559503-4.59786349-5.8194101-1.40997164-9.6524653-3.05405403-11.839979-4.18454081l-2.8582764-1.4758713-.9719576 3.0739118c-1.957618 6.19931321-6.106955 8.950756-8.8345133 10.1251759-2.7256308-1.1710986-6.8632277-3.91690034-8.8222475-10.11832233l-.9699075-3.0739118-2.8582764 1.4758713c-2.1889155 1.13059221-6.0205689 2.77463946-11.8434835 4.18454081-2.6236496.63428866-4.880903 2.26606978-6.3559503 4.59575472-3.0335017 4.7941566-3.0335017 4.7941566-13.49638446 19.8999412l-1.65027264 2.3792415 17.5663444 10.6585238 4.8672354-5.5114964v43.3004726l23.6852148.0102969 23.4539172-.0178474-.0006844-43.3004726 4.8686372 5.5136052 17.5593354-10.6585238zm-14.8531547 6.0325431-11.3554808-12.8662504v52.2153792l-18.2637414.0102968v.0068647l-18.0201782-.0102969-.0006844-52.2153792-11.3574083 12.8641416-8.74830238-5.3076468c8.88988448-12.8339156 9.05004048-13.0873218 11.97420168-17.7085577.71527-1.1305922 1.796761-1.9207556 3.0473446-2.2221367 4.4305737-1.07361977 7.8441394-2.29067234 10.3347929-3.35947702 3.2628718 7.04774942 8.9336908 9.93573632 11.6647536 10.97027312l1.4100211.8930723 1.182088-.9479887c5.0718986-1.9399103 9.1458887-5.8341412 11.5203679-10.92423121 2.4908288 1.06811933 5.9077237 2.28733341 10.3382974 3.36088291 1.250531.3027342 2.3320746 1.0914566 3.0492721 2.2233668 2.9253878 4.6191271 3.0883474 4.8737634 11.9742017 17.7085577z"/></svg>