<svg height="297" viewBox="0 0 241 297" width="241" xmlns="http://www.w3.org/2000/svg"><path d="m180.636596 297h-64.307512c-5.111021 0-9.257902-4.147967-9.257902-9.26046 0-5.112433 4.146822-9.260459 9.257902-9.260459h64.307512c5.111021 0 9.257902 4.147967 9.257902 9.260459 0 5.112434-4.146822 9.26046-9.257902 9.26046zm-171.37869432-46.060106c-5.11102153 0-9.25790168-4.147967-9.25790168-9.26046 0-45.754272 28.3946295-84.991161 68.4843189-101.025339-22.0110074-13.263406-36.7641497-37.400707-36.7641497-64.9263401 0-41.7530937 33.9593854-75.7277549 75.7068368-75.7277549 41.747452 0 75.706837 33.9728933 75.706837 75.7277549 0 27.0860341-14.290689 50.9010021-35.735559 64.2899231 27.216405 10.337655 49.676316 31.415439 61.485663 59.328227 1.988255 4.709605-.211715 10.139658-4.924626 12.13789-4.715197 1.988804-10.143927-.218674-12.134538-4.925987-14.152247-33.47142-46.776704-55.101945-83.106089-55.101945-49.736405 0-90.1990025 40.47142-90.1990025 90.223925.0046027 5.110135-4.1421672 9.260106-9.25554522 9.260106zm98.16380232-232.4160284c-31.5310638 0-57.1922117 25.6635239-57.1922117 57.2080142 0 31.5444902 25.656435 57.2080142 57.1922117 57.2080142 31.535777 0 57.192212-25.663524 57.192212-57.2080142 0-31.5444903-25.658791-57.2080142-57.192212-57.2080142zm124.320394 228.6918094h-115.413014c-5.111021 0-9.257902-4.147967-9.257902-9.26046s4.146822-9.26046 9.257902-9.26046l115.413014.002303c5.111022 0 9.257902 4.147967 9.257902 9.260459 0 5.110136-4.146821 9.258158-9.257902 9.258158z"/></svg>