<svg height="101" viewBox="0 0 117 101" width="117" xmlns="http://www.w3.org/2000/svg"><path d="m109.2 17.6246998v-2.0862383c0-8.5694615-6.9966-15.5384615-15.6-15.5384615h-78c-8.60184 0-15.6 6.969-15.6 15.5384615v69.923077c0 8.5694615 6.99816 15.5384615 15.6 15.5384615h85.8c8.6034 0 15.6-6.969 15.6-15.5384615v-54.3846154c0-5.7392418-3.14184-10.7623824-7.8-13.4523121zm0 48.4134066h-15.6c-4.2995829 0-7.8-3.4866088-7.8-7.7692308s3.5004171-7.7692308 7.8-7.7692308h15.6zm-7.8 27.1923077h-85.8c-4.3022571 0-7.8-3.4866088-7.8-7.7692308v-69.9230769c0-4.282622 3.4977429-7.7692308 7.8-7.7692308h78c4.2995829 0 7.8 3.4866088 7.8 7.7692308h-81.9c-2.1537137 0-3.9 1.7376661-3.9 3.8846154 0 2.1469492 1.7462863 3.8846153 3.9 3.8846153h81.9c4.299583 0 7.8 3.4866088 7.8 7.7692308v11.6538462h-15.6c-8.6034 0-15.6 6.969-15.6 15.5384615s6.9966 15.5384615 15.6 15.5384615h15.6v11.6538462c0 4.282622-3.500417 7.7692308-7.8 7.7692308z"/></svg>